<svg xmlns="http://www.w3.org/2000/svg" viewBox="0 0 392.73 135.82"><defs><style>.cls-1,.cls-2,.cls-4{fill:none;stroke:#6f6f6e;stroke-width:0.5px;}.cls-1,.cls-4{stroke-linecap:round;}.cls-1{stroke-linejoin:round;}.cls-2,.cls-4{stroke-miterlimit:2.61;}.cls-3{fill:#6f6f6e;fill-rule:evenodd;}</style></defs><g id="Ebene_2" data-name="Ebene 2"><g id="Ebene_1-2" data-name="Ebene 1"><path class="cls-1" d="M204.28,14.45c1.1-1.63,1.73-3.78-.42-2.21s-3.68,2.16-5.94-.31-3.68-1.37-3.68-1.37.69-1.1,2.68,1.68,7.89,5.58,8-.55-2.4-8.64-6.44-5.91-3,.94-7.78,1-3.36,5.2-3.36,5.2-.42-5.46,4.57-3.84,7.57,1.32,9-.57,3.74.69,3.74.69S202.23,3.84,199,6.83s-4.94,3.94-7.3,3.1-2.58,2.1-2.58,2.1m15.83-1.69s-1.8-3.25-4.84-.25S195,13.77,192,12.4s-3.2,3.89-3.2,3.89,1.47-4,5.15-1.95,5.51,4,8.19,2.16,4-4.21,1.74-4.26-3.36,4.68-8.51,5-5.31.06-5.78,4.1-4.89,3.57-4.89,3.57,2.52,3.79,5.1.69,4.41-7.41,10-4.21,8.36,0,7.46-3.2S203.91,15,203.91,15s4.89,1.39.42,3.6-8.41-2.89-11,1S187.2,22,187.2,22s3.86,2.74,8.72-2.83,3.21-.42,8,2.83,3.5-2.12,3.5-2.12,3.75,2.23,2.17,5.38S195,29,191.25,34.57s-5.62,5.88-12.19,4.47-11,3.41-11,3.41,5-7.19,14.41-2.81,11.91-2.71,14.59-5.75,6.83,1.68,9.72.68,2.41-4.15,2.41-4.15,4.05,3.57-2,6.25-6.73-1.05-8.83,3.1-7.9,3.83-12.66,1.73-9.56,4.42-9.56,4.42,4.88-6,14.71-4.21,14.81-3,15.39-8.35a14.22,14.22,0,0,1,3.36-8.09s1.79,3.63-.42,5.15-3.33,2.95-7.88,1.58-7.32,2.59-9.19,5.62S187.94,35,184,36.51s-3.09,6.11-3.09,6.11-.64-6.74,2.93-9.78a19.69,19.69,0,0,0,5-6.38s1.87.86-1.12,4.43-2.78,4.5.63,8.3-3.21,7.94-9.41,8.93-6.14,3.63-4.93,7.25-2.84,6.05-2.84,6.05,7.14-.69,5.78-6.36,6.25-3.63,11.35-3.52,6.5-3.18,6.51-6.31,10.69-.68,11.3-4.51,3-4.84,3-4.84,1.79,3.58-1.05,5.57,2.21,3.26-5,6.67,1.73,4.1-5,7.25-2.89,5.63-6.1,8.78-1.42,5.3-7.67,7.41S179.53,79,179.53,79s-2.62-6.89,2.79-9.3,7.62-4.31,5.67-9,1.87-6.43,7.25-8.72,7.88-5.57,6.73-11.3,1.73-6.44,1.73-6.44S198.87,31.57,196,39s-4.15,12.93-9.88,13.87-7.41-.15-7.3,8.36-4.94,11.66-4.94,11.66,5.67-1.05,6-6.62.74-9.28,4.2-8.83,9-4.49,9-4.49-3.28,8.28-9.27,9.75-8.83.31-11.14,4.94-8,4.51-8,4.51"/><path class="cls-2" d="M204.14,47.59a14.27,14.27,0,0,0,8.07,4.47c4.94.74,9.77,2.63,10.93,10.3s3.05,3.36,2.52,5.26,1.47,1.26,0,3.36-.84,9.35-1.26,14.5-.37,4.67-1.1,5.57,1.73,1,.21,1.84-7,5.36-7.46,6.2a38.52,38.52,0,0,1-13.4,11.61c-8.51,4.62-24.69,5.25-35.41,14S142,129.19,142,129.19s6.2.31,8.94-1.79-.64-5.25,4.62-6.09.31-4.1,5.46-5.78,8.93-10.19,12.4-15.24,3.78-12.55,4.94-16.91,1-5.89,1-5.89m-6-16.6s-3.26,4.94-2.42,12.82-.53,18,.52,20.07a14,14,0,0,0,3.44,3.93s2.66-5,1.71-8.13S175.12,78.65,174,74.76s-.07-9.11-.07-9.11m45,3.44s.31,4.2-1.37,5.67.84-1-.31,3.47.31,4.73-.63,7.77,1.15,4-.21,6.41.73,3.89-3.47,8.41-12.19,11.35-26.27,12.71-11.87,3.79-21.22,9-15.14,4.73-12,3.36,2.94-3.89,9.45-6.09-4.51-1.79,3.26-4.42,14.08-13.87,18.49-25.95a139.68,139.68,0,0,0,6.22-24.13m26.09,10c-3.31,1.68-7.51,4-13.81,15.34s-3.16,11.56-14.29,15.44-12.66,10.14-23.83,12.37m29.15-60.2s14.46,1.49,25.48-3.13m-26,4.43s14.93,1.88,26.76-3.64m-18-33.39c-5.3,1-2.1,1.92-7.14,4.49s-7.36,0-10.82,3.68-1.79,3-7.41,3.36-7.2,4.05-7.2,4.05,3.94-4.52,9-3.05,6.94-.89,10.62-3.52,6,.58,10.14-2.62a22.56,22.56,0,0,0,5.66-6.09s1,5.6-7.92,7.54-9,.44-11.09,8-2.62,5.41-8.93,8-1.89,10-6.57,10.25-3.57,4.41-3.57,4.41,2.29-4.82,6.9-3.7,1.51-7.12,12.86-9.44S200.29,36.25,202.6,35m13.45,64.08s-.53,1.41,1.36,5.3a13.36,13.36,0,0,1-4.25,16c-6.1,4.68-9.09,5.31-9.35,6.31s-2.63,2.1-2.31,3.36,1.47,1.1,2.57.89.05.42,1.21.74.68,1.05,1.89.68.47.63,1.79,0,.68.95,3.36-1.94a19.51,19.51,0,0,0,4.78-7.57c.94-2.73,2.07-7.58-.17-6.86"/><path class="cls-3" d="M223.4,64.12s44.1-.85,83.73.42,55.52,3.5,50,2.41-18.56-1.72-36.45-3.47-12,.38-32.61-1.07S272,65,261.21,63.26s-26.48.52-32.58-.07-5.65-.19-5.23.93Z"/><path class="cls-3" d="M220.45,55.9s58-1.51,109.87,3.61,62.41,7.62,62.41,7.62a765.19,765.19,0,0,0-101.19-11.3c-53.79-2.18-71.85-.72-71.85-.72l.76.79Z"/><path class="cls-3" d="M171.9,64.12s-44.94-.86-85.33.4S30,68,35.62,66.92s18.92-1.72,37.15-3.46S85,63.84,106,62.39s16.41,2.62,27.38.86,27,.53,33.2-.06,5.75-.19,5.32.93Z"/><path class="cls-3" d="M172.28,55.91s-58-.39-109.87,5.73S0,70.46,0,70.46A771.51,771.51,0,0,1,101.19,57.21C155,54,173,55.11,173,55.11l-.76.8Z"/><path class="cls-4" d="M204.66,8.26s-.06.09,1.88,2.14-2.26,1.79-.1,3.52-.5,2.51.48,3.3,2,.84,2.19,2.69-.25,1.82.48,2.28-2.05,6.5-11.82,4.92-13.56-2.31-17.87,1.58-7.46,1.89-7.46,1.89"/><path class="cls-3" d="M126.94,36.53c-.67-.59-2-1.74-3.31-1.57s-2.9.6-3.46,1.92c2,0,1.71-1.33,3.77-.05,4.65,2.89,3.22.24,6.55-.83a12.63,12.63,0,0,0,3.65-1.48c-.92-.48-2.65.18-3.67.42a20.26,20.26,0,0,0-3.53,1.59Z"/><path class="cls-3" d="M56.62,33c.48.27,3.86-.93,5.11-1.15C84.16,28,90,31.06,107.78,29.72c-1.25-.62-45.53-1.48-51.16,3.28Z"/><path class="cls-3" d="M87.19,20c-.55-1.47-2.43-2-4.23-2.26-2.44-.3-3,.59-4.68,1.29-.34-2.19-1-2.79.48-4.6,3.17-3.83,7.94-3.78,12.1-1.76,0,1.23,0,2.5,0,3.73,0,3,.37,2,.78,2.46,0-6.39-.45-4.34,2.15-7.82-1.6.67-1.26.45-2,1.69l-.26-.19-.25-.18c-3-2.24-8.74-2.37-12,.53-3,2.69-1.45,5.14-1.41,6.37.07,2.71-2.58,2.65.44,6l.93-.53c-.4-.19-.45-.1-.81-.36-2.32-1.69.19-3.6.2-3.61s.15-.14.2-.2a2,2,0,0,0,.18-.23c3-3.83,4.83-1.31,8.21-.31Z"/><path class="cls-3" d="M107.81,13.76c.4-2.09,1.38-3,3.21-3.89,2.35-1.18,2.64-.24,4.48.64-1.84-3.91-6.31-.83-7.55,1.17-.39.63-1,2.22-1.42,3-1.29,2.67,0,.48-1.81,2.12.18,1.47.15,1,.88,1.55l-.08-1c1.15-.25.73-.24,1.53.27,0-1.57-.16-1.82,1.17-3.23,0,1.88-.21,1.43.93,2.39l.53-3.68c4.06-1.57,2.22,6.07,4,8.37.48-3-.71-7.61-2.22-9.44-2.86,0-1.45.91-3.65,1.73Z"/><path class="cls-3" d="M93.43,25.72c2,.83,26.48-.52,30.52-.59-4.45-.63-10.79,0-15.33.21-3.68.18-12.37-.53-15.19.38Z"/><path class="cls-3" d="M116.86,16.29c.88-1.62.3-1.54,1.84-3.18l2.87.07c-.53,2.37-1.31.46-1.44,2.65,1.58.19,3-.41,4.71-.29,2.47.17,1.28,1.09,1.3,2.82l1.39,0c-1.55-1.42.42-.65-1.09-3L121.35,15c1.88-1.57,1.06-2.65-1.4-2.66s-3.32,1.49-3.09,3.93Z"/><path class="cls-3" d="M87.19,20c.07.37.68,3,.8,3.26,1.57-1.34,0-.7,2.24-2.44,1.53.55.33-.35,1.34,1.05.87-.63.78-.8,1.68-1.52,1.5.25.54.38,2.12.92C94.71,20,95,20.07,94,19.36c-1.79.35-.76.78-2.84.86a4.79,4.79,0,0,0-2.83,1.05c-.69-1.5-.54-1-1.12-1.23Z"/><path class="cls-3" d="M94,10.88c2.62-1.33,3.53-3.35,6.91-4.22s5.57,2.21,6.75,2.79c-1-1.39-.84-1.78-2.66-2.81-3.79-2.13-7.93.85-10.41,3.45-.56.58-.1,0-.59.79Z"/><path class="cls-3" d="M49,27.34c1.62-.11,2.66-.45,4.38-.64l3.71-.5c.06-.13.19-.11.29-.16a20.58,20.58,0,0,0-6.82.68l-1,.29-.6.33Z"/><path class="cls-3" d="M62.1,25.72c-.52,0-2,0-2.46,0Z"/><path class="cls-3" d="M263.89,28.52c.82-.87.24.38.6-.87.27-.93-.32-.31.6-3,1.24.59.5.81,2,1.05s1.19-.2,2.3.65c-.93,1.38-.64.77-2.51,1.12,1,2.07-.07.82,0,2.81,0,1.09.45,2.36,1.43,2.63-.11-.21-.63-1.23-.69-1.42-.74-2.24.33-2.65,1.33-3,1.61-.52,3.15-1.47,4.38.49-.91,1.36-1.14.3-1.63,1.66.24.14-.37.76,1.15.14.62-.25.52-.45,1-.72a10.64,10.64,0,0,1,2.44-.61l-2.34-.17c-.51-2-1.88-2.4-4.08-1.72-.38-3.23-1.12-1.35-2.36-3.9-4.86,0-2.92,1.29-3.58,4.86ZM278.08,32c-.56-1.48-.51-.43-.79-2.54-.53.78-.13.31-.69.77-.35.29-.23.13-.57.42l-.26.37c.49.3,1.78.72,2.31,1l-3.79,1.2,4.09.15c0,1.63.1.63-.42,1.9-2.35.27-1.66-.15-2.9-.57.6,1.23,1.34,1.38,2.91,1.25a3.92,3.92,0,0,0,.76-2.55l0-.35-.61-1Zm-17.31-2.3a14.77,14.77,0,0,1,1.45-.53c2.08-.73.62.11,1.29-1a9.48,9.48,0,0,0-3.41,1.11c.17,1.78.45.75.57,1.76.06.44-.19.61-.2,1.61a9.1,9.1,0,0,0,1.45,1.08l1.51.29h0c-1.49-1.75-1.73,0-2.32-2,1.07-.63.25-.14,1.31-.32l1.05-.34c-.67-1.46.11-.07-1.48-.56a1.91,1.91,0,0,1-1.22-1.1Z"/><path class="cls-3" d="M330.3,7.53c2.72,1.37,1.26-.5,2.32,1.89-1.87.58-2-.25-4.67,0-2.85.24-2.11.93-2.53-2.08l4.88.22Zm0,0a3.66,3.66,0,0,0-.39-.2c-3.09-1.11-3,0-4.8-1.73a1.87,1.87,0,0,1-.48-.69.78.78,0,0,0-.22-.37l0,1.79c-5.91-.16-10.06-.77-12.28,4.11.43,2.06.36,2.11,2.2,2.83-.81-2-.8-.43-1.6-3,6.2-5.79,11.53-3.32,12-1.78,0,1.8-.28.9-1.39,2.56,1.67-.15,2.75-.57,4.44-.85,3.9-.62,3.39.6,3.69.78,2.1,1.19,2.77.43,4.15,1.16s1.18,1.36,1.88,2.82c5.53-2.28,4.37-.55,4.58.74-1.15.71,0,.6-2.36.63a21.94,21.94,0,0,1-2.51-.3c-1.41-.08-3.17.36-5.14.29s-3.2-.61-5.28-.47-2.44.55-4.67.58c-6.75.08-15.81-.79-21.74.86,7.73.07,17.12-.39,25.24-.74s16.78.77,24.68.89c-3.16-1.54-5.31,1.07-7-1.86-1.09-1.88.92-2.65-6.12-2.15-.84-1.72-1.35-2.13-3.75-2.62-.14-2.83-.23.54.5-2.76l-3.56-.54Z"/><path class="cls-3" d="M318.59,1.06c-1.74-1.1-7.9-2.11-9.83,1.16-4-.09-7.21-.33-4.58,4-.57-3.75,1-4,4.61-3.09,2.62-.37-2.75-2.3,9.8-2Z"/><path class="cls-3" d="M304.89,11.56c-5.22-1.5-4.17.35-4.41-3.46l-.61,2.26,2.42,1.76c-.13,1.67-1.46.5,0,3.36,1.08-4,.6-1.56,2.64-3.92Z"/><path class="cls-3" d="M105.67,119.94c.43.78.39.49.62.9h0c.07.14.18.35.33.7l1.53.13a1.5,1.5,0,0,0,.15-.23l.09-.17v0a2.51,2.51,0,0,1,.44-.61c.29-.28.5-.29.6-.43v0c.12-.17.09-.5-.13-1.57-.14-.7-.06-.86-.88-.78-.59.85-.07.29.19,1.4.5,2.12-2.2,1.84-2.28.64,0-.93.82-1.41,1.57-.55-.23.72,0,.51-.6.69-.22-.15-.51-.22-.13-.44s-.17,0,.38.09c-.56-2.12-2.06,1.81.56.8a1.4,1.4,0,0,0,.13-1.66,3.35,3.35,0,0,0-1.71-.45c-.38.66-.15.71-.87,1.51Zm.78-1.81a4.42,4.42,0,0,1-.14-.78c-.47.32-.51,0-1.1.79a7.4,7.4,0,0,0-.37.66c-.15.18-.18.11-.48.39v.31l.06.1-.06,0c0,.47,0,.33-.31,1.11l.16.19a9.56,9.56,0,0,0,1.63,0l-.45-.67c.07-.21.83-1.63,1.06-2Zm0-1.07c.09,0,.11,0,.1,0l.09,0-.15.13h0a3.11,3.11,0,0,0,.07.82l1.3.26.48-1.08c-1-.13-.79.51-1.51-.43l.45.13a10.56,10.56,0,0,1,1.79-2.61c-.31-.12-.59-.42-1.46-.93-1.3.12-.78.77-2.12.42.25-.08,1.81-.69,2-.69,1.44,0,.36.92,1.82.92-.27-.47,0-.14-.56-.49l2.17.63c-.54.1-.91.17-1.18.2,0,.08-.18.17-.48.29s-1,1.38-1.88,2.27a1.84,1.84,0,0,0,1,0c.31.27.53.44.7.57.25-.09,2.8-1,3.45-.7-.78-.57-2-1.14-1.54-2.22.76.47,1.28.71,1.65,1.55l.61,1.16c.38.73.09.76.77,1.3-.45.33-.3.09-.34.78a8.75,8.75,0,0,1,1.11.53,1.38,1.38,0,0,1,.41.38.49.49,0,0,1,0,.11l.09.47c.67.07.72.09.86.77,1,.46.87.72,1.75,1.25-.78,0-1.66-1.09-1.75-1.25-.84-.93-1-.36-1.44-.94s-.22-1.18-1.23-.94a5.42,5.42,0,0,0-.27-2.46c-1.17.47-.13,1.6.06,2.64L112,121.33c.19.69.27.62.12,1,.36-.07-.29.4.49,1.35,1,1.2,1.88,4.64,1.47,4.67H114a2.35,2.35,0,0,1,1.23.08c.81-.73.76-.14,1.32-1.36-.32-.63-.24,0-.34-.82a6.8,6.8,0,0,0,0-.76c-.17-.78-.55-.71-.56-1.48-.59-.68-.53-1.12-1-1.89a4.7,4.7,0,0,0-1.09-1.26l-.2-.36c1.53.84,1.43,1.27,2.09,2.6.38.76.34.3.2.91a3.9,3.9,0,0,1,.9,1.46l.65-.27c-.46.67-.57.33-.63,1.25l1.07-.2.48-.65c-.8-.53-.55-.16-.92-1.67.66.2-.11.33.72,0,.28-.61.21,0,0-.74.68.59.36.72.8,1.21,3.42-4.08-3-4.71-4.74-5.56a10,10,0,0,1,5.34,2c1.61,1.46-.34,3.49-1.19,4.7.05.86-.4.8-1.11,1-.3,1.06-.53,2-1.74,1.78-.45.23-1.66.32-2.39.62-4,1.62-3.1-.11-4.83.26a3,3,0,0,1-1.76,0,2.2,2.2,0,0,1-1.1-1.31,4.13,4.13,0,0,0-.61-.35c-.63-.27-.91-.13-1.6-.49a3.12,3.12,0,0,1-.31-1.79,18.54,18.54,0,0,1-2.24-2.07c0-.64.3-1,0-1.63-.75-1.59-1.61-.63.12-2.11a5.11,5.11,0,0,0,.88-1.18l0-1.38a1.22,1.22,0,0,1,0,1.38c0,1.07-.73,1.31-1.26,1.81l.42.33c.51.41,2.31.29,4,.88v0l-.44-.36a.25.25,0,0,1-.18-.11l0-.08,0,0v0c0-.09,0-.13,0-.14a5.73,5.73,0,0,1,.29-1.3,11.76,11.76,0,0,1-2.83-2.6l0,0a.21.21,0,0,1-.11.09l-.06-.71c.69-.59,1.12,0,2.16-1s1-2.09,2-1.54l-.1,0a1.78,1.78,0,0,1-.19.56c-.19.48.28,1.76.27,3.16a1.33,1.33,0,0,1,1.11-.4Zm-.49,3.88a9.18,9.18,0,0,1-1.5.18,2.05,2.05,0,0,1,.11.33v0l.19.07h-.13c.39.41.4.5.34,1.14a3,3,0,0,1,1.49,1.1,3,3,0,0,1,1-.1.52.52,0,0,1,.11-.1,6.67,6.67,0,0,0,.53-1.52,8.63,8.63,0,0,0-1.46-.12l-.68-1Zm3.79-2.4a12.24,12.24,0,0,1,3,.91,5.78,5.78,0,0,1-.35-1,3.75,3.75,0,0,1,.11-1.24l-.37-.12c-.48-.16-1.77.41-3.16.38.48.34.5.3.52.8,0,.33.72.53.26,1.87l-.21.25a7.77,7.77,0,0,1,1.18,2.24h.31l.58-.13-.69.24.11-.11.58-.13.32-.11c-.43-1.58.15-1.4.84-2.4l-.24-.27c-.32-.37-1.69-.51-2.83-1.21Zm.7,4c0-.39-.61-1.15-.92-2.1l-1.2,1.42a7,7,0,0,1-.51,1.82,2.32,2.32,0,0,0,.63,0c.18,0,1.11-.32,1.65-.39.33-.56.42-.23.11-.9l.24.1Zm-2.79,1.32-.07,0c-.2,0-.29,0-.3,0a9,9,0,0,0-2.79.85c0-.39.2-.17-.19-.51l-.93.1c.2-.9.29-.21-.19-.72a2.23,2.23,0,0,0-1.41.36l.42.39.62-.13-.62.13c.2.53.12.41.66.66l-.21.4c.84.91-.52,1.47,1.6,1.87.78.15.47.22.87-.09a2.13,2.13,0,0,1,.17-.43c.53-1,3.74-2.92,3.75-2.93-.4.19-.12.27-1.26.06Zm-3.09-2.37a14.7,14.7,0,0,1-4.29-.52,1.58,1.58,0,0,1,.47.89c.13.77-.2.83,0,1.63,1.22.48,1.1-.66,2.45.09a1.42,1.42,0,0,1,1.82.55c.71-.4.45-.13.58-1l-.84-.29a12.5,12.5,0,0,1-.18-1.36Zm-2.88-5.26c0,.12.08.27.13.44.17.54,1.46,1.34,2.41,2.57a4.79,4.79,0,0,1,1-1.74c-.24-.86-.9-3.36-.41-3.69l-.08,0c-1.71,2.76-1.76,1.73-2.93,2.34l-.12.06Zm3.82,11.66a1.46,1.46,0,0,1,.36-1.12,19.91,19.91,0,0,1,3.17-3,4.6,4.6,0,0,1,.45-.15c.81-.21.86-.18.94-.3h0a2.73,2.73,0,0,1,.25-.34c.22-.09.64,0,1.43.93a5.3,5.3,0,0,1,1,4.68c-1.29.49-2.62,1.28-4,.43.36-.72.44-1.36.75-2.12.55-1.39.49-.61.57-2.08-.22.58-.06.58-.26,1-.86,1.85-.76,2.09-1.15,2.94l-2.13.51-.43-.34c-.65-.51-.35-.73-.89-1.1Zm-1.64-3.36-.45.41.45-.41Zm8.7-8.46-1.38-1.33c.07,1,.57,1.26,1.39,1.67v-.34Zm5.32,9.18.65-.61c-.8-.67-.92.09-.65.61Zm-13.58-1c.13-.57.24-.61-.5-.28l.5.28Z"/><path class="cls-3" d="M109.87,129.78c-3.67.56-4.73,0-10,.21a50.35,50.35,0,0,1-7.6,0l-1.57-.12s-.39-.12,3.21-.27,3.14-.47,1.65-.75-5.41-.12-1.45-.35,6.72,0,9,0-.11-.35-3.29-.59-5.64-.27-3.92-.43,1.1-.43,3.69-.31-1-.4.31-.71.31-.9,1.06-1.1a3.42,3.42,0,0,1,1.63.1s-.06,1.5.66,1.71,2,.4,2.22.83l.28.44s.06,1.06,1,.9,2.82-.4,3.07.4Z"/><path class="cls-3" d="M220.77,71.73l-1.84-1.85c0,.79.1.74.85,1.37a2.81,2.81,0,0,0,1.13.65l-.14-.17ZM219,71.46c0,.66-.49.47.59,1.1,1.47.86.63.07-.11-.67-.15-.15-.34-.33-.5-.47l0,0Zm-2.47,17.46.69-.11a4.81,4.81,0,0,1-.74.92c0,.32,0,.64-.06.94l.19,0a2.27,2.27,0,0,1-.21.28c0,.45,0,.87-.06,1.27.64-.69.72-.32,1.05-.26a1.32,1.32,0,0,1-.93,1.4l-.15-.2c0,.46,0,.88,0,1.25l0-.21a6,6,0,0,1,1,1.28l.24-.28-.8-1.26,1.16-.8.71.93.27-.3a5.38,5.38,0,0,1-.47-.88l1.29-.93c.16.18.27.33.38.47l.22-.25-.32-.62c-.19-.45-.08.14-.19-.62l.91.75.37-.45-1-1.32A3.7,3.7,0,0,1,221.18,91l.23-.29a5.41,5.41,0,0,1-1-1.81c.51.36,1,.79,1.46,1.2l.24-.34a5,5,0,0,1-1-1.09c.2-.12,0-.56.83,0a2.49,2.49,0,0,1,.54.52l.14-.22-.77-.8c.86-.69.31.14.76-.66-.59-.35-2.77-2.24-2.7-2.9s.41-.6-.13-.3c-.33.18-.59-.47-1-.82-.83-.77-1.2-.56-.68-1.7a30.48,30.48,0,0,0,5.42,4.89l.27.16h0c-1.9-2.32-3.95-3.87-6-5.94-.21-.22-.1-.41,0-.71,1.14.9,4.5,4.52,5.31,4.79-.2-.77-4.8-4.74-4.74-5.08a1.28,1.28,0,0,1,.23-.45c.09.08,7,6.84,4.14,3.55-.31-.36-5-5.12-1.71-2.23a24,24,0,0,0,3.26,2.65c-.5-.48-4.72-4.38-4.69-4.65,0-.69.34-.42.89-.17a11.24,11.24,0,0,1,2.45,1.86c-1.2-2.06-3.7-3.12-5.36-5.3,1.38.15,1.4,1,2.85,1.66-2.85-3.45.06-.33,1.06,0,.43.15-1.58-1.76-1.76-1.94s-1.25-1.29-1.43-1.2c-.49.25.21.68-.19.38-.21-.16-.61.78-.69,1-.45,0-.7-.66-.55.94.1,1-.24,1.17.23,1.84a1.17,1.17,0,0,1,.14.86c-.65-.42-.48-.46-.54,1.09,0,0-.13,3.24,0,2.25,0-.35.54.45.54.45-.24.54.1.54-.44.19-.32-.21-.14.44-.12.78a41.88,41.88,0,0,1-.11,4.48c.17.07,0,0,0,.48,0,.15,0,.3,0,.45Zm-.21,5.85c0,.23,0,.43,0,.61l.07.05c.34.28.08.21.47.62a1.26,1.26,0,0,0,.11-.17l-.11-.21c-.27-.5-.5-.62-.58-.9Zm2.26-2.21c-.06-.29-.81.13.25-.79,0,.29.53-.16-.25.79Zm-.72-.49c-.25-.7-.09-1.13,1-.86-.31.42-.53.77-1,.86Zm0-2c-.2.19-.81.71-1,.34-.08-.21,0-.31.26-.44.65-.28,0-.28.7.1Zm1.93.86c-.48-.44-.42,0-.24-.58.61.72,0-.09.24.58Zm-1.25-1.38c-.66,0-.62,0-.48-.79a4.45,4.45,0,0,1,.63.79Zm.89-.83c.17.31.08.2,0,.62-.71-.58-.54-.34-.57-1.19.38.26.35.11.59.57Zm-2.65-1.35c.4-.36.72-.71,1.15-1,.57.7.69.64.75,1.56-.43.11-.16.22-.82-.22s0,.15-.1.9c-.09.55-.18.07-.67-.54-.25-.31-.44-.38-.31-.65Zm4.17.75c-.3.24-.09.36-.58,0a5.29,5.29,0,0,1-.58-.83A12.16,12.16,0,0,1,221,88l-.09.09Zm-2.24-2.16c.77.38.82.51,1.08,1.31a17.36,17.36,0,0,1-1.26-1.36l.18.05Zm1.48.68a2.29,2.29,0,0,1-1-1.52,32.39,32.39,0,0,1,2.65,2.59c-.44.18.24.68-1.16-.63l-.48-.44Zm-2.91-3.24c.37-1.11.57,0,.28-.06-.12,0-.28-.1-.28.06Zm.25-1.48c-.71,0-.42-1,0-.76s.55.43,0,.76Zm-.09-2c0,.32-.68.1-.44-.17s.06-.42.44.17Zm.74-.54c-.23.32-.25.11-.66-.25s1.06-.33.66.25Zm.41-2.3c1.42,1.06,1,1.75.17,1.13-.5-.38-1.49-1-1.12-1.71.17-.29.68.37,1,.58Z"/><path class="cls-3" d="M173.79,74.64c-.55.63-2,2-.61.34,0-.06.91-1.33.67-.46l-.06.12Zm0,1.18c-1.77,1.61-.06-.51.11-.61a.8.8,0,0,1,0,.42l-.16.19Zm-.29,2.74c-2.49,2.49,2.16-2.68-1.15.47-1.41,1.34,1.87-2.31,1.92-2.37.4.83-.12.21.17.3,0,0,.3.67.19.72a3.15,3.15,0,0,0-1.13.88Zm2.72,7.83-.06,0,.08.09.09.5-.47,0a2.74,2.74,0,0,0,.56.58c0,.22.06.43.1.63l-.14,0,.16.18c0,.3.08.58.12.85-.47-.42-.51-.17-.72-.11a.9.9,0,0,0,.71.89l.09-.15c0,.31.06.59.08.84a1,1,0,0,0,0-.14,4.23,4.23,0,0,0-.59.93l-.18-.18.46-.89-.83-.47-.42.67-.2-.19a4.09,4.09,0,0,0,.26-.62l-.93-.54-.23.34-.16-.16.18-.44c.1-.31.07.1.09-.43l-.57.57-.27-.29.61-.94a2.31,2.31,0,0,0-.7.85l-.17-.19a3.72,3.72,0,0,0,.57-1.28c-.33.27-.61.59-.92.9l-.17-.21a4.12,4.12,0,0,0,.61-.8c-.14-.07-.06-.38-.56.07a1.41,1.41,0,0,0-.33.39l-.11-.14.47-.6c-.62-.4-.2.12-.55-.39.35-.26,1.74-1.63,1.55-2-.44-.78.07.21.26-.24.4-.93,1.17-.61.46-1.48a12,12,0,0,1-3.13,3.31h0c.4-.53,3.23-3.74,3.2-4.13,0-.77-.9.71-1,.81-.8,1.15-3.3,3.7-.78.55.32-.38,1.57-1.66,1.1-2.1-.4.38-1,1.22-1.38,1.69-1.78,2.1-1.27,1.17,0-.29.6-.76,1.21-1.85,0-.39a6.29,6.29,0,0,1-1.62,1.59c.4-.46,2.54-2.74,2.4-3.25-.25-.89-2.51,2.39-1.62.84.61-1.06,2.27-2.47,3.16-3.71.69,2.34-.09,1.79-.06,2.62,0,.54.35-.41.34.08a14.7,14.7,0,0,0,.52,2.61c-.17-.29,0-.4-.36.07-.06.07,0,0,.13.31.48-.44.26-.31.52.79.18.74.32,1.45.45,2.2Zm.61,4.54c0,.16,0,.3,0,.42l0,0c-.21.21,0,.15-.28.45l-.08-.1a1.16,1.16,0,0,1,.06-.16c.15-.34.3-.44.33-.64Zm-1.66-1.34c0-.21.56,0-.21-.52,0,.2-.37-.08.21.52Zm.46-.38c.12-.49,0-.77-.7-.52.23.26.41.49.7.52Zm-.16-1.36c.16.11.6.42.67.17s0-.22-.2-.29c-.45-.15,0-.18-.47.12Zm-1.24.69c.3-.32.28-.05.12-.4-.36.52,0-.06-.12.4Zm1-1.56-.42.59c.51-.14.61.08.42-.59Zm-.56-.36c-.15.13-.24.11-.33.32-.15.37-.1.12,0,.51.48-.48.34-.27.32-.83Zm.08-.19c.32,0,0,.14.35,0,.68-.52.13-.26.37.6.72-1.12.85-.82,0-1.4-.31-.19-.36-.26-.62.29a1,1,0,0,0-.06.55Zm-1.62.25c.45.14.07.34.52,0,.61-.89.23-.5-.35-.1l-.17.12Zm1.44-1.43c-.48.26-.5.33-.61.85a10.82,10.82,0,0,0,.72-.89l-.11,0Zm-1.86,1.27c.13.17-.08.33.49-.31s.83-.66,1-1.45a11.42,11.42,0,0,0-1.5,1.71l0,0ZM175,83.65c.37,0,.27.08.14-.15s-.24.11-.14.15Zm-.26-1.37c-.21.24-.33.24,0,.48.16.1.57-.19,0-.54l-.08.06Zm.19-1c-.14-.09-.07-.34-.25,0s.47.11.25,0Zm-.86-.38c-.13.15.2.6.46-.16.16-.46-.41.1-.46.16Zm.35-2.21c-.18.16-1.72,1.61-.95,1.75.21-.24,1.1-1.15,1.1-1.4a.9.9,0,0,0-.05-.4l-.1,0Z"/><path class="cls-3" d="M214.63,83.59a50.74,50.74,0,0,1-.26-5.5,7.52,7.52,0,0,1,0-1c.31.06.69.81.78,1.11.21.73,0,1.54.13,1.93s.13.16.2-.13c.36-1.37.45-3.69.55-.35,0,.88.08,2.79.36.48.11-.91.33-3.15-.13-3.9-.16-.27-.49-.43-.4,0-.69-.42-1.08.6-1.67.63s-.63.06-1,.55a3.84,3.84,0,0,1-.44.54c-1.17,1.14-.56.14-1.44,1.65s-.35-.47-1.47.84a19.45,19.45,0,0,0-1.75,2.08c.6,0,0,.78-.11.81-.23-.32-.11-.65-.79.38a38,38,0,0,0-2.24,3.73c-.54,1-.76.56-.09.92-.14.42-1.27.85-1.58,2.39,0,.13-1.41,2.63-1.67,3.36.62-.51,1.37-1.23.69.31-.13.29-1.4,2.82-1.66,1.5-.17.17-.44.85-.64,1.14.39,0,0,1.44.56,1.29.22-.06-.37-1.22.1-1.31,1.48-.32,1.09-.94,1.27.75,1-1.17-.27-.63,1.09-2.31.48-.59,1-1.41,1.54-1.92.06.5-.26,1.78.39.11.3-.78.24-1.77.66-2.33.05.41.11,1.74.71.69.28-.5.16-3.81.34-1.12.08,1.08.48.34.48-.56,0-1.57,0-1.56.58,0,.27.68.5.18.4-.29-.31-1.49.25-1.1.61,0,.16.46.5.47.19-.33-.44-1.12,1.4.62.78-.66-.47-1-1-2-.31-3,.58-.54.11.26-.28-.42-.23-.42-.63-2-.2-2.33.66-.52.5-.2.68.86a19.94,19.94,0,0,0,1.91,6c-.2-1.44-1.9-7.46-1.63-8.36.45-.72.92,2.58,1,2.92a19.9,19.9,0,0,0,1.2,3.87c-.12-.83-1.39-6.67-1.12-7,.52-.64,1,2.33,1,2.63.43,1.68,1.76,7,.77,1.53-.37-2.07-1.05-5.2.31-.82.12.4,1.69,5.87.86,2.36-.11-.49-1.91-6.37-.66-5.94.89.31,1.89,6.5,1.47,3l-.09-.72Zm-14.7,14.68a5.13,5.13,0,0,1-.1-1c-.25.39-.23.46-.06.89,0,.08.12.18.16.07Zm3.5-3.71c-.85,1.55-.92.33.19-.85.66-.7-.12.73-.19.85Zm-.1-1.75c.8-1.43,1.79-1.48.15.64-1.27,1.65-.59.16-.15-.64Zm1-3.24c.83-.63.21,1-.41.89-.37-.08.32-.8.41-.89Zm1.39.89c.29-.39.17.76-.14.61-.14-.07.09-.52.14-.61Zm-.4-1.44c-.2-.29.52-1,.4-.06-.05.35-.2.33-.4.06Zm1.3-.87c.3.67-.57,1.43-.39.29,0-.21.14-.54.39-.29Zm-.65-.87c-.21-.12-.54,1.68-.71.7-.33-1.83,2.21-2,1.42-.56-.32.59-.53.25-.71-.14Zm1.77,1.23c-.17-.49-.19-1.29.37-.16.3.61-.26.37-.37.16Zm-.07-1.81c.38,1.47-.36.84-.22-.36.11,0,.19.27.22.36Zm.71-.5a19.74,19.74,0,0,1,.77,2.74c-.68-.13-.54-.53-.8-1.25a1.66,1.66,0,0,1,0-1.49Zm-.13-2.7c.34,0,.14.36-.42.17l.42-.17Zm1.08-1.45c.5.38-.6,1.11-.54.23,0-.31.31-.3.54-.23Zm.46-1.18c.3-.36.63.38.08.35-.2,0-.13-.24-.08-.35Zm1.07.26c-.6-.4.44-1.24.46-.26,0,.32-.2.36-.46.26Zm2.61-.84c-.7,2.5-1.57-1.23-.35-1.73.44-.13.5.13.51.54a4.8,4.8,0,0,1-.16,1.19Z"/><path class="cls-3" d="M200.27,112.86a13.37,13.37,0,0,0-.65,3.32c.62-1.36.8-2.92,1.35-4.22.12-.27.48-.61-.05-.47s-.54.94-.65,1.37Zm-1.41.87c0,.15-.83,3.5-.15,1.78.41-1,.79-2.34,1.13-3.42a1.86,1.86,0,0,0-.71.55,10.22,10.22,0,0,0-.27,1.09ZM177,119l.2,0a5.15,5.15,0,0,1-.81,1.35l.35.15c.39-.52.74-1,.86-1.17.37.27.82.62,1.2.84l-.57.94a2,2,0,0,0,.55,0,5,5,0,0,1,.61-.69c.86-.08.74.15,1.74-.2.08,0,.58-.24.62-.16s.51-.11.61-.2.29-.26.4-.16c.3.26.3.15.69.28.11,0,.09-.18.12-.33s0-.18.13,0c.14.41-.27.3.17.54.21.11-.07-.52.59-.5a1.88,1.88,0,0,1-.1,1c-.05.15,0,.34.1.49s.11-.11.15-.23a1.59,1.59,0,0,1,.28-.65,1.19,1.19,0,0,1,0,1.33c-.17.43-.42.58-.28,1.06,0,0,.52-1,.59-1.17,0,.1.16,1,.17,1a1.4,1.4,0,0,0,.3.23c.19-.85.85-3,1.64-3.42.64-.15.72.2.23-.22-.29-.25.21-.7.4-1.18.4-1,.07-1.32,1.32-1.19a28.63,28.63,0,0,0-2.5,6.71l0,.3h0c1.43-2.54,2.1-5,3.25-7.56.13-.28.35-.23.65-.28-.4,1.38-2.5,5.73-2.45,6.59.64-.44,2.59-6.08,2.94-6.14a1.45,1.45,0,0,1,.5.08c-.05.11-3.71,8.84-1.73,5.07.21-.42,2.85-6.41,1.42-2.34a22.55,22.55,0,0,0-1.23,3.94,61.89,61.89,0,0,1,2.54-5.94c.67-.17.52.19.49.79a11,11,0,0,1-.8,2.92c1.51-2,1.6-4.57,2.93-6.81.21-.35.12.74.11.83-.13.72-.46,1.34-.58,2.09l0,.15c0,.38,0,.14.17-.13a8.59,8.59,0,0,1,.92-1.5,17.1,17.1,0,0,1-.57,1.93c-.2.76-.31,1.54.27.29.21-.45,2.12-4.67,1.91-4.92s-.49.28-.56.4c.12-.44-.25-.19-.5-.07s-.7.43-1,.64c-.22-.7-.06-.35-1,0a11.64,11.64,0,0,1-1.39.3c-.48.18-.22.52-1.07.76l-.09,0c.14-.75.24-.6-1.22-.17,0,0-3,.92-2.09.73.34-.08-.21.65-.21.65-.59-.06-.46.27-.34-.36,0-.29-.26-.11-.46,0a30.4,30.4,0,0,1-3.37,1c-.4.14-.77.31-1.18.42,0,.14-.27.07-.5.1-.54.07-.47,0-.21.42s.22.31-.24.11l-.79-.38a5,5,0,0,0-.9.24c.12.19.18.16-.16.09a5.4,5.4,0,0,0-1.17.53c.65.22.55.22.61.84a1.11,1.11,0,0,1-1.59-.29c.21-.31.2-.22-.24-.07q-.39.12-.78.27Zm-.37.14-.55.23,0,.08c-.13.42-.17.14-.4.65l.19,0a.6.6,0,0,0,.16-.16c.36-.42.38-.68.62-.84Zm4.1.94c.09,0,.25,0-.21.11a3.1,3.1,0,0,1-.71,0c0-.2-.37-.29.51-.2.07,0,.41,0,.41,0Zm-.17-.21a1.49,1.49,0,0,1-.86-.27c.82-.79.71-.11,1.43.16.25.09-.57.11-.57.11Zm.26-1.93c.35-.14.42.15.68.36s0,.14,0,.46-.25,0-.34-.12-.62-.41-.34-.7Zm2.06,1.56c-.14,0-.19.13-.34,0s.45-.16.37,0Zm.05-.83c.05.11-.12.34-.18.43-1.24-.35.14-.51.18-.43Zm1.19.49c-.09.13-.69.11-.6-.1s.52-.11.54-.07a.35.35,0,0,1,.06.17Zm.43-1.61c.55.3.53.23.27.79-.14.31-.35.62-.75.49s-.22-.57-.27-.88c-.32.24-.52.49-1,.44s.14-.46.26-.65c.5-.78.29-.82,1.3-.27l.15.08Zm.63,2.21a3,3,0,0,1,0,.79c-.14-.25-.42-.55-.18-.78a.41.41,0,0,0,.1-.09h0l0,.07Zm.49-1.33c.09.32,0,1.25-.46,1.23-.12,0,.33-1.11.44-1.24Zm1,.49c-.32.92-.69,1.79-1.09,2.68-.12.25,0,.1-.18-.23-.06-.15.13-.53.19-.71a3.46,3.46,0,0,1,.62-1.46,2.66,2.66,0,0,1,.48-.38l0,.1Zm1.07-2.28c0-.12,0-.23-.15-.2,1.16,0,.2.54.15.2Zm1.31-.44c-.28-.67.8-.74.69-.28s-.19.66-.69.28Zm1.8-.72c-.29.14-.35-.61,0-.47s.42-.08,0,.47Zm.77.53c-.38-.12-.19-.2,0-.7s.7.89,0,.7Zm1.34.07c.12-.46.38-1.62,1.07-1.38.35.12-.07.81-.16,1.1-.43,1.41-1.24,1.49-.91.28Z"/><path class="cls-2" d="M203.81,126.67s-8.57,1.84-15.08.68-9.83-3.73-11.51-5.31-3.52-.89-3.41,1.21c.37,7.46,10.32,11.45,14.51,12.3,1.05.21.8-1.1,1-1.05.79.15,1.52-.11,1.58-.74s1.68.05,1.41-.58,1.58-.58,1.21-1.21,2.05-.63,1.47-1.78a2.63,2.63,0,0,0-2.78-1.63c-1.31.1.47-.59-2.05-1"/></g></g></svg>