<?xml version="1.0" encoding="UTF-8"?>
<!DOCTYPE svg PUBLIC "-//W3C//DTD SVG 1.1//EN" "http://www.w3.org/Graphics/SVG/1.1/DTD/svg11.dtd">
<!-- Creator: CorelDRAW 2020 (64-Bit) -->
<svg xmlns="http://www.w3.org/2000/svg" xml:space="preserve" width="0.735276in" height="0.735276in" version="1.1" style="shape-rendering:geometricPrecision; text-rendering:geometricPrecision; image-rendering:optimizeQuality; fill-rule:evenodd; clip-rule:evenodd"
viewBox="0 0 347.26 347.26"
 xmlns:xlink="http://www.w3.org/1999/xlink"
 xmlns:xodm="http://www.corel.com/coreldraw/odm/2003">
 <defs>
  <style type="text/css">
   <![CDATA[
    .fil0 {fill:white}
   ]]>
  </style>
 </defs>
 <g id="text">
  <metadata id="CorelCorpID_0Corel-Layer"/>
  <path class="fil0" d="M-0 81.39l0 184.48c0,39.07 39.11,81.39 86.81,81.39l173.64 0c47.7,0 86.81,-42.32 86.81,-81.39l0 -184.48c0,-10.77 -5.1,-23.39 -8.96,-31.74l-13.11 -19.45c-15.3,-16.86 -35.65,-30.2 -64.75,-30.2l-173.64 0c-47.7,0 -86.81,42.32 -86.81,81.39zm90 -8.91l177.76 0 7.86 0c15.18,0 26.55,3.83 26.55,26.91l0 145.67c0,7.42 -3.03,14.16 -7.89,19.02 -4.86,4.86 -11.61,7.89 -19.02,7.89l-203.28 0c-7.42,0 -14.16,-3.03 -19.02,-7.89 -4.86,-4.86 -7.89,-11.59 -7.89,-19.02l0 -145.67c0,-12.48 5.71,-16.59 12.18,-21.59 7.63,-5.9 19.18,-5.32 32.74,-5.32zm182.16 24.71l-79.39 79.39c-5.3,5.23 -12.19,7.86 -19.03,7.86 -6.88,0 -13.81,-2.63 -19.03,-7.86l-79.4 -79.39 -3.32 0c-0.59,0 -1.15,0.26 -1.54,0.66 -0.39,0.39 -0.66,0.95 -0.66,1.54l0 145.67c0,0.59 0.26,1.15 0.66,1.54 0.39,0.39 0.95,0.66 1.54,0.66l203.28 0c0.59,0 1.15,-0.26 1.54,-0.66 0.39,-0.39 0.66,-0.95 0.66,-1.54l0 -145.67c0,-0.59 -0.26,-1.15 -0.66,-1.54 -0.39,-0.39 -0.95,-0.66 -1.54,-0.66l-3.12 0zm-96.83 61.94l61.88 -61.94 -126.95 0 61.92 61.92c0.41,0.41 0.99,0.63 1.56,0.63 0.6,0 1.17,-0.21 1.58,-0.6z"/>
 </g>
</svg>
