<?xml version="1.0" encoding="UTF-8"?>
<!DOCTYPE svg PUBLIC "-//W3C//DTD SVG 1.1//EN" "http://www.w3.org/Graphics/SVG/1.1/DTD/svg11.dtd">
<!-- Creator: CorelDRAW 2020 (64-Bit) -->
<svg xmlns="http://www.w3.org/2000/svg" xml:space="preserve" width="0.735283in" height="0.735276in" version="1.1" style="shape-rendering:geometricPrecision; text-rendering:geometricPrecision; image-rendering:optimizeQuality; fill-rule:evenodd; clip-rule:evenodd"
viewBox="0 0 729.7 729.7"
 xmlns:xlink="http://www.w3.org/1999/xlink"
 xmlns:xodm="http://www.corel.com/coreldraw/odm/2003">
 <defs>
  <style type="text/css">
   <![CDATA[
    .fil0 {fill:white}
   ]]>
  </style>
 </defs>
 <g id="text">
  <metadata id="CorelCorpID_0Corel-Layer"/>
  <path class="fil0" d="M302.14 239.43c0,-112.32 89.07,-102.61 165.32,-102.61l0 74.11c-75.35,0 -68.41,-0.77 -68.41,62.71l68.41 0 -5.7 91.22 -68.41 0 0 228.03 -85.51 0 0 -228.03 -45.6 0 0 -91.22 39.9 0 0 -34.2zm-302.14 -68.41l0 387.65c0,21.76 10.08,51.58 18.11,67.39 27.84,54.81 88.02,103.62 152.91,103.62l387.65 0c83.44,0 171.03,-87.58 171.03,-171.02l0 -387.65c0,-83.44 -87.58,-171.02 -171.03,-171.02l-387.65 0c-83.87,0 -171.03,87.98 -171.03,171.02z"/>
 </g>
</svg>
