<?xml version="1.0" encoding="UTF-8"?>
<!DOCTYPE svg PUBLIC "-//W3C//DTD SVG 1.1//EN" "http://www.w3.org/Graphics/SVG/1.1/DTD/svg11.dtd">
<!-- Creator: CorelDRAW 2020 (64-Bit) -->
<svg xmlns="http://www.w3.org/2000/svg" xml:space="preserve" width="0.735276in" height="0.735276in" version="1.1" style="shape-rendering:geometricPrecision; text-rendering:geometricPrecision; image-rendering:optimizeQuality; fill-rule:evenodd; clip-rule:evenodd"
viewBox="0 0 177.92 177.92"
 xmlns:xlink="http://www.w3.org/1999/xlink"
 xmlns:xodm="http://www.corel.com/coreldraw/odm/2003">
 <defs>
  <style type="text/css">
   <![CDATA[
    .fil0 {fill:white}
   ]]>
  </style>
 </defs>
 <g id="text">
  <metadata id="CorelCorpID_0Corel-Layer"/>
  <path class="fil0" d="M33.36 65.33c0,-12.57 2.47,-30.58 18.07,-30.58l75.06 0c7.74,0 16.68,8.94 16.68,16.68l0 75.06c0,7.74 -8.94,16.68 -16.68,16.68l-75.06 0c-6.68,0 -12.61,-5.1 -14.94,-10.08 -4.89,-10.45 -3.13,-53.9 -3.13,-67.76zm79.23 0c22.76,0 19.46,3.07 19.46,-15.29 0,-6.06 -5.89,-4.17 -19.46,-4.17l0 19.46zm-43.09 22.24c0,27.63 38.92,27.63 38.92,0 0,-13.29 -19.5,-25.87 -32.43,-12.97 -2.97,2.97 -6.5,7.67 -6.5,12.97zm-11.12 1.39c0,-2.98 1.8,-9.08 2.78,-11.12l-18.07 0c0,34.93 -5.76,56.99 16.68,56.99 86.03,0 75.06,10.45 75.06,-56.99l-18.07 0c6.62,13.81 -0.6,35.82 -22.08,40.56 -18.53,4.09 -36.29,-11.78 -36.29,-29.44zm-58.38 -47.26l0 94.52c0,20.02 20.04,41.7 44.48,41.7l88.96 0c24.44,0 44.48,-21.68 44.48,-41.7l0 -94.52c0,-8.99 -5.5,-19.84 -11.3,-26.23 -7.84,-8.64 -18.27,-15.47 -33.18,-15.47l-88.96 0c-24.44,0 -44.48,21.68 -44.48,41.7z"/>
 </g>
</svg>
