<?xml version="1.0" encoding="UTF-8"?>
<!DOCTYPE svg PUBLIC "-//W3C//DTD SVG 1.1//EN" "http://www.w3.org/Graphics/SVG/1.1/DTD/svg11.dtd">
<!-- Creator: CorelDRAW 2020 (64-Bit) -->
<svg xmlns="http://www.w3.org/2000/svg" xml:space="preserve" width="8.02461in" height="5.89307in" version="1.1" style="shape-rendering:geometricPrecision; text-rendering:geometricPrecision; image-rendering:optimizeQuality; fill-rule:evenodd; clip-rule:evenodd"
viewBox="0 0 37323.22 27409.26"
 xmlns:xlink="http://www.w3.org/1999/xlink"
 xmlns:xodm="http://www.corel.com/coreldraw/odm/2003">
 <defs>
  <style type="text/css">
   <![CDATA[
    .fil0 {fill:none}
    .fil1 {fill:#E0E0E0}
    .fil2 {fill:#E0E0E0;fill-rule:nonzero}
   ]]>
  </style>
 </defs>
 <g id="Layer_x0020_1">
  <metadata id="CorelCorpID_0Corel-Layer"/>
  <polygon class="fil0" points="-0,0 37323.22,0 37323.22,27409.26 -0,27409.26 "/>
  <g id="_2451714219408">
   <path class="fil1" d="M3310.17 24649.69l0 -989.64 -890.67 -985.96 308.49 0 707.41 780.1 703.12 -780.1 311.55 0 -894.33 989.64 0 985.96 -245.57 0zm2737.85 -179.6c221.75,0 405.63,-75.75 551.63,-227.24 145.39,-151.51 218.09,-343.92 218.09,-576.68 0,-233.36 -72.7,-426.4 -217.48,-577.89 -144.77,-151.51 -329.26,-227.26 -552.24,-227.26 -221.75,0 -405.62,76.38 -551.63,228.47 -145.37,152.11 -218.07,344.55 -218.07,576.68 0,232.76 72.7,425.17 218.07,576.68 146.02,151.49 329.88,227.24 551.63,227.24zm-0.6 230.91c-296.28,0 -540.63,-97.73 -733.06,-292.62 -192.43,-194.87 -288.95,-442.28 -288.95,-742.22 0,-300.55 96.52,-548.57 290.18,-743.44 193.04,-194.87 436.78,-292.62 731.83,-292.62 295.67,0 540.63,97.75 735.5,293.84 194.27,195.47 291.41,442.88 291.41,742.22 0,299.94 -97.14,547.35 -290.79,742.22 -193.66,194.89 -439.24,292.62 -736.12,292.62zm3591.27 -586.44l0 -289.56 -538.81 0 0 -227.24 784.39 0 0 593.77c-95.31,164.33 -219.92,290.18 -373.26,378.15 -153.32,87.35 -327.43,131.33 -521.69,131.33 -295.67,0 -540.02,-97.73 -733.06,-292.62 -192.43,-194.87 -288.95,-442.28 -288.95,-742.22 0,-300.55 96.52,-548.57 289.56,-743.44 193.66,-194.87 437.4,-292.62 731.85,-292.62 182.64,0 349.42,39.72 499.7,119.74 150.28,80.02 272.46,194.27 366.52,342.09l-205.25 146.6c-62.31,-117.89 -151.49,-210.75 -268.79,-277.33 -116.68,-66.6 -247.41,-100.2 -391.57,-100.2 -221.75,0 -405.63,76.38 -551.03,228.47 -145.37,152.11 -218.07,344.55 -218.07,576.68 0,232.76 72.7,425.17 218.07,576.68 145.39,151.49 329.28,227.24 551.03,227.24 138.67,0 261.45,-29.94 369.58,-89.19 107.52,-59.86 200.99,-148.43 279.8,-266.34zm1646.8 -227.24l869.9 0 -436.78 -874.79 -433.12 874.79zm-637.15 762.38l968.25 -1975.6 204.03 0 979.26 1975.6 -266.96 0 -268.17 -531.47 -1091.65 0 -261.45 531.47 -263.3 0zm3070.18 0l0 -1975.6 249.25 0 0 780.71 1165.56 0 0 -780.71 245.57 0 0 1975.6 -245.57 0 0 -967.65 -1165.56 0 0 967.65 -249.25 0zm3217.41 -762.38l869.9 0 -436.78 -874.79 -433.12 874.79zm-637.15 762.38l968.25 -1975.6 204.03 0 979.26 1975.6 -266.96 0 -268.17 -531.47 -1091.65 0 -261.45 531.47 -263.3 0zm1205.88 -2503.41c0,-43.98 15.27,-81.85 45.82,-113.62 30.54,-31.77 67.81,-47.65 111.79,-47.65 43.98,0 81.87,15.88 113.62,47.65 31.77,31.77 47.66,69.64 47.66,113.62 0,45.21 -15.89,83.7 -47.66,114.85 -31.75,31.17 -69.64,46.44 -113.62,46.44 -43.98,0 -81.25,-15.27 -111.79,-46.44 -30.54,-31.15 -45.82,-69.64 -45.82,-114.85zm-575.45 0c0,-43.98 15.89,-81.85 47.66,-113.62 31.75,-31.77 69.64,-47.65 113.62,-47.65 43.98,0 81.25,15.88 111.79,47.65 30.54,31.77 45.82,69.64 45.82,113.62 0,45.21 -15.27,83.7 -45.82,114.85 -30.54,31.17 -67.81,46.44 -111.79,46.44 -43.98,0 -81.87,-15.27 -113.62,-46.44 -31.77,-31.15 -47.66,-69.64 -47.66,-114.85zm2634.02 527.81l0 1279.2c0,204.65 38.49,342.09 115.45,412.34 76.98,69.64 227.87,104.47 453.88,104.47 225.43,0 376.32,-34.83 452.68,-104.47 76.36,-70.24 114.23,-207.69 114.23,-412.34l0 -1279.2 245.57 0 0 1345.17c0,243.12 -62.92,417.83 -189.38,523.52 -126.44,105.68 -334.75,158.21 -624.31,158.21 -289.56,0 -497.87,-52.54 -624.33,-158.21 -126.46,-105.69 -189.38,-280.4 -189.38,-523.52l0 -1345.17 245.57 0zm2359.11 1678.09l142.96 -211.97c139.88,108.13 285.27,190.6 436.16,248.03 150.89,56.8 300.56,85.51 448.39,85.51 182.66,0 331.11,-38.49 444.73,-116.06 114.23,-77.59 171.05,-177.16 171.05,-298.73 0,-96.52 -40.93,-175.94 -122.8,-238.25 -81.85,-62.3 -194.87,-99.56 -339.04,-111.79 -34.81,-3.66 -84.91,-7.32 -150.28,-10.38 -324.99,-23.22 -546.12,-61.09 -664.63,-114.85 -91.63,-44.59 -161.89,-101.41 -209.54,-171.05 -47.65,-70.24 -71.47,-148.43 -71.47,-235.8 0,-158.83 70.87,-289.56 213.2,-392.8 141.71,-102.64 326.2,-153.94 552.84,-153.94 164.95,0 327.44,26.88 488.11,81.25 160.65,54.37 313.38,135.01 457.55,241.31l-142.96 205.25c-122.17,-98.35 -249.84,-172.27 -384.25,-222.36 -134.39,-49.5 -272.46,-74.55 -414.17,-74.55 -149.05,0 -271.85,29.33 -368.97,87.36 -96.52,58.03 -144.79,130.73 -144.79,218.09 0,34.21 7.95,65.98 23.22,94.69 15.27,28.71 39.7,56.2 71.47,81.25 81.25,60.48 256.58,99.58 526.58,116.06 124.02,7.34 220.54,14.67 288.35,23.22 200.36,22.6 359.2,86.74 476.48,193.04 116.68,106.3 175.33,236.42 175.33,391.57 0,184.49 -80.04,336.6 -240.7,455.73 -160.65,119.12 -371.41,178.98 -631.65,178.98 -196.7,0 -379.96,-28.71 -548.57,-85.51 -169.22,-57.42 -329.88,-144.79 -482.6,-263.3zm4571.73 -332.92l197.93 146.6c-90.4,171.67 -215.03,304.23 -372.64,396.46 -157,92.25 -335.98,138.67 -536.96,138.67 -295.67,0 -540.02,-97.73 -733.06,-292.62 -192.43,-194.87 -288.95,-442.28 -288.95,-742.22 0,-300.55 96.52,-548.57 289.56,-743.44 193.66,-194.87 437.4,-292.62 731.85,-292.62 182.64,0 349.42,39.72 499.7,119.74 150.28,80.02 272.46,194.27 366.52,342.09l-205.86 146.6c-61.71,-117.89 -151.51,-210.75 -268.19,-277.33 -116.68,-66.6 -247.41,-100.2 -391.57,-100.2 -221.75,0 -405.63,76.38 -551.03,228.47 -145.37,152.11 -218.07,344.55 -218.07,576.68 0,232.76 72.7,425.17 218.07,576.68 145.39,151.49 329.28,227.24 551.03,227.24 155.17,0 292.62,-38.49 412.96,-114.85 120.34,-76.36 219.92,-188.15 298.71,-335.98zm1256.47 630.42l0 -1975.6 249.25 0 0 780.71 1165.56 0 0 -780.71 245.57 0 0 1975.6 -245.57 0 0 -967.65 -1165.56 0 0 967.65 -249.25 0zm2877.14 0l0 -1975.6 1554.09 0 0 227.24 -1308.51 0 0 579.12 791.71 0 0 227.26 -791.71 0 0 714.73 1389.16 0 0 227.24 -1634.73 0zm2619.35 0l0 -1975.6 128.91 0 1282.24 1476.5 0 -1476.5 245.57 0 0 1975.6 -125.23 0 -1285.92 -1476.5 0 1476.5 -245.57 0z"/>
   <path class="fil1" d="M11725.19 21329.07l0 -1975.6 227.24 0 799.04 1209.56 802.7 -1209.56 223.58 0 0 1975.6 -241.91 0 0 -1542.48 -784.37 1168.62 -784.37 -1168.62 0 1542.48 -241.91 0zm3098.75 0l0 -1986.59 249.24 0 0 1986.59 -249.24 0zm1541.58 -1095.92l872.34 0c124,0 218.09,-27.5 281.63,-82.47 64.13,-54.37 95.9,-135.01 95.9,-241.31 0,-103.24 -31.77,-184.49 -95.9,-241.89 -63.54,-58.05 -153.34,-86.76 -269.42,-86.76l-884.55 0 0 652.44zm-245.57 1095.92l0 -1975.6 1133.81 0c193.04,0 343.92,48.87 453.88,146 109.34,97.14 164.33,231.53 164.33,403.18 0,142.96 -42.78,265.13 -128.29,367.14 -86.14,102.03 -199.15,165.55 -339.66,190.6l493.6 868.67 -271.23 0 -494.21 -865.01 -766.66 0 0 865.01 -245.57 0zm2663.78 0l0 -1979.26 245.57 0 0 985.96 1133.2 -985.96 321.93 0 -798.43 703.12 919.38 1276.14 -296.88 0 -799.64 -1105.7 -479.56 402.58 0 703.12 -245.57 0zm2821.4 -762.38l869.9 0 -436.78 -874.79 -433.12 874.79zm-637.15 762.38l968.25 -1975.6 204.03 0 979.26 1975.6 -266.96 0 -268.17 -531.47 -1091.65 0 -261.45 531.47 -263.3 0zm2727.32 -297.51l142.96 -211.97c139.88,108.13 285.27,190.6 436.16,248.03 150.89,56.8 300.56,85.51 448.39,85.51 182.66,0 331.11,-38.49 444.73,-116.06 114.23,-77.59 171.05,-177.16 171.05,-298.73 0,-96.52 -40.93,-175.94 -122.8,-238.25 -81.85,-62.3 -194.87,-99.56 -339.04,-111.79 -34.81,-3.66 -84.91,-7.32 -150.28,-10.38 -324.99,-23.22 -546.12,-61.09 -664.63,-114.85 -91.63,-44.59 -161.89,-101.41 -209.54,-171.05 -47.65,-70.24 -71.47,-148.43 -71.47,-235.8 0,-158.83 70.87,-289.56 213.2,-392.8 141.71,-102.64 326.2,-153.94 552.84,-153.94 164.95,0 327.44,26.88 488.11,81.25 160.65,54.37 313.38,135.01 457.55,241.31l-142.96 205.25c-122.17,-98.35 -249.84,-172.27 -384.25,-222.36 -134.39,-49.5 -272.46,-74.55 -414.17,-74.55 -149.05,0 -271.85,29.33 -368.97,87.36 -96.52,58.03 -144.79,130.73 -144.79,218.09 0,34.21 7.95,65.98 23.22,94.69 15.27,28.71 39.7,56.2 71.47,81.25 81.25,60.48 256.58,99.58 526.58,116.06 124.02,7.34 220.54,14.67 288.35,23.22 200.36,22.6 359.2,86.74 476.48,193.04 116.68,106.3 175.33,236.42 175.33,391.57 0,184.49 -80.04,336.6 -240.7,455.73 -160.65,119.12 -371.41,178.98 -631.65,178.98 -196.7,0 -379.96,-28.71 -548.57,-85.51 -169.22,-57.42 -329.88,-144.79 -482.6,-263.3z"/>
   <path class="fil2" d="M18754.63 12430.86c51.91,51.14 52.66,134.77 1.56,186.72 -51.14,51.93 -134.77,52.66 -186.72,1.57 -100.53,-98.64 -177.82,-235.56 -207.25,-372.6 -20.73,-96.65 -18.46,-195.24 14.47,-284.34 35.1,-94.85 102.27,-176.21 209.28,-230.71 105.47,-53.62 251.03,-79.56 444.53,-62.02 245.04,22.28 412.61,170.9 499.99,376.35 49.66,116.97 72.15,252.44 66.78,391.74 -5.4,137.46 -37.48,279.23 -97,410.91 -134.5,297.83 -407.12,548.92 -824.27,594.04 -296.39,32.04 -574.01,-55.1 -794.24,-219.19 -174.97,-130.34 -313.88,-309.41 -396.84,-515.72 -83.15,-206.53 -110.84,-440.26 -63.69,-679.65 61.38,-311.44 249.05,-631.38 605.89,-910.28 326.77,-255.57 650.68,-335.85 948.48,-302.38 357.38,40.23 671.3,245.1 904.97,506.8 315.78,353.39 445.19,730.72 418.18,1103.3 -64.71,892.88 -928.74,1626.93 -1829.68,1576.41 -520.26,-10.6 -1247.26,-422.94 -1831.74,-1028.48 -2337.03,-2421.15 184.62,-5472.12 2044.67,-3031.25 873.18,-806.05 1781.35,-1006.12 2413.46,-739.87 2745.94,1157.02 -602.1,4879.27 -2159.54,5470.9 193.5,62.94 385.02,128.07 573.55,194.45 1441.53,-753.29 2552.1,-1307.58 3909.01,-939.28 729.16,197.91 1118,465.2 1248.51,741.3 93.17,196.98 64.58,393.13 -61.31,573.24 -111.57,159.64 -302.87,304.13 -552.78,419.94 -759.32,352.02 -2110.15,461.81 -3409.2,-77.81 -348.32,-144.7 -724,-290.25 -1114.6,-430.1l-7.05 3.72c-1713.05,895.94 -3908.51,2044.19 -7509.14,2256.84 -72.82,4.27 -135.34,-51.38 -139.61,-124.17 -4.34,-72.81 51.29,-135.36 124.1,-139.57 3398.69,-200.73 5530.61,-1250.67 7190.61,-2116.18 -180.73,-61.78 -363.76,-121.86 -547.93,-179.85 -1090.28,650.26 -2102.5,1007.71 -2941.89,1144.59 -595.49,97.03 -1107.36,83.74 -1501.97,-14.61 -417.32,-104.05 -710.74,-304.81 -844.72,-574.48 -72.2,-145.45 -97.31,-308.75 -69.78,-485.62 14.12,-91.03 37.5,-174.97 69.47,-251.98 165.97,-399.65 553.57,-624.22 1084.86,-717.18 500.91,-87.66 1136.3,-57.9 1833.3,50.32 737.4,114.56 1545.92,317.43 2336.48,561.78 1356.11,-440.94 4984.77,-4158.81 2309.87,-5155.37 -572.41,-213.27 -1393.24,17.51 -2156.92,822.86 -0.07,-0.07 -27.96,22.52 -31.04,24.24 -63.1,36.27 -143.76,14.5 -180,-48.56 -1241.48,-2187.44 -3994.17,153.69 -1754.27,2543.89 480.27,512.39 1114.62,945.78 1690.03,982.57 756.83,42.45 1497.27,-582.89 1551.51,-1331.24 21.96,-302.72 -86.72,-613.19 -350.9,-908.87 -194.5,-217.78 -451.08,-387.73 -737.44,-419.9 -233.56,-26.31 -491.33,39.72 -757.18,247.52 -301.31,235.56 -458.68,499.57 -508.65,753 -36.93,187.51 -15.44,370 49.18,530.77 64.86,160.99 172.93,300.56 308.95,401.9 169.2,126.06 382.16,192.98 609.11,168.48 309.46,-33.44 511.62,-219.43 611.2,-439.88 45.63,-100.99 70.22,-208.55 74.25,-311.61 3.9,-101.19 -11.7,-197.78 -46.18,-279.03 -50.5,-118.93 -144.88,-204.67 -280.68,-217.03 -138.95,-12.54 -236.36,2.47 -300.73,35.16 -42.54,21.61 -68.41,51.75 -81.01,85.84 -14.72,39.96 -14.89,88.35 -4.1,138.53 18.7,87.22 68.67,175.19 133.8,239.11zm-3098.88 3308.69c757.65,-123.49 1662.46,-434.16 2640.93,-988.98 -704.4,-209.45 -1415.01,-381.74 -2067.72,-483.18 -668.75,-103.84 -1274.99,-133.01 -1747.38,-50.32 -441.87,77.33 -759.48,252.61 -886.27,557.82 -24.45,58.96 -42.39,122.65 -52.9,190.99 -18.84,120.89 -2.31,231.29 45.94,328.38 98.52,198.26 331.53,350.26 670.93,434.79 362.14,90.31 837.64,101.65 1396.48,10.51zm4190.95 -750.33c313.12,115.49 614.82,233.91 898.36,351.63 1225.29,508.91 2490.2,409.72 3197.15,81.98 208.15,-96.48 363.04,-210.45 447.26,-331 69.99,-100.2 87.31,-206.35 38.56,-309.48 -99.16,-209.83 -432.74,-423.18 -1078.83,-598.56 -1193.7,-324.04 -2216.5,138.4 -3502.5,805.43z"/>
   <path class="fil2" d="M18599.99 6180.87c64.55,-34.26 144.7,-9.71 178.96,54.84 34.24,64.55 9.69,144.7 -54.86,178.96l-6586.54 3500.33 0 7368.51c0,73.12 -59.31,132.43 -132.43,132.43 -73.1,0 -132.41,-59.31 -132.41,-132.43l0 -7448 0.07 0c0.04,-47.33 25.53,-93.15 70.3,-116.88l6656.91 -3537.76z"/>
   <path class="fil2" d="M18599.99 6414.67c-64.55,-34.26 -89.1,-114.41 -54.84,-178.96 34.24,-64.55 114.39,-89.1 178.94,-54.84l2189.64 1163.62 0 -384.67c0,-73.1 59.31,-132.41 132.41,-132.41l2110.24 0c73.1,0 132.41,59.31 132.41,132.41l0 1627.32 2092.76 1132.03c44.3,23.86 69.51,69.36 69.57,116.35l0.27 0 0 7448c0,73.12 -59.31,132.43 -132.43,132.43 -73.12,0 -132.43,-59.31 -132.43,-132.43l0 -7369.41 -2084.66 -1127.65c-45.96,-20.8 -77.92,-67.06 -77.92,-120.75l0 -1573.46 -1845.39 0 0 472.47 -0.07 0c0.04,20.97 -4.93,42.26 -15.45,62.06 -34.24,64.55 -114.39,89.1 -178.94,54.84l-2384.11 -1266.95z"/>
   <path class="fil2" d="M21168.2 6909.66c27.69,67.4 -4.49,144.53 -71.89,172.22 -67.4,27.69 -144.55,-4.5 -172.22,-71.91 -0.92,-2.25 -328.49,-806.91 238.98,-1122.21 324.55,-180.31 643.74,-38.12 855.29,114.01 16.44,-273.21 122.14,-636.89 538.08,-794.68 153.07,-58.07 308,-70.33 449.64,-38.89 153.96,34.17 290.42,119.01 390.78,251.89 96.1,127.26 158.3,298.15 168.96,509.5 14.52,286.74 -67.04,653.31 -292.05,1090.76 -33.38,64.82 -113.09,90.28 -177.91,56.89 -64.82,-33.4 -90.28,-113.11 -56.89,-177.93 201.9,-392.49 275.48,-712.88 263.12,-957.28 -7.82,-154.31 -50.54,-275.62 -116.28,-362.66 -61.42,-81.32 -144.02,-133.07 -236.64,-153.6 -91.52,-20.31 -194.71,-11.22 -299.59,28.57 -492.94,186.96 -352.15,829.87 -351.76,831.67l-0.31 0.07c9.78,46.33 -5.75,96.37 -44.68,128.71 -56,46.53 -139.15,38.89 -185.68,-17.08 -1.14,-1.37 -405.58,-484.96 -775.84,-279.27 -363.35,201.9 -123.77,789.59 -123.11,791.24z"/>
   <path class="fil2" d="M23600.36 2682.09c88.46,-32.15 174.18,-51.03 261.98,-53.89 148.56,-4.8 294.98,35.98 459.51,134.74 183.11,109.94 313.62,270.86 376.26,441.87 66.14,180.7 58.45,373.72 -38.91,535.85 -157.13,261.83 -462.51,422.28 -841.78,531.87 -359.76,103.99 -784.13,163.15 -1208.44,222.19 -62.7,8.62 -121.28,-28.24 -142.15,-85.39l-0.07 0.04c-147.39,-402.3 -294.83,-804.69 -372.2,-1171.22 -81.52,-386.04 -83.52,-730.68 73.58,-992.39 97.51,-162.33 264.29,-259.99 454.97,-286.54 180.39,-25.1 383.62,14.26 566.43,124 164.71,98.84 269.73,209.02 335.41,342.77 38.64,78.54 62.24,162.92 75.42,256.08zm270.28 209.87c-100.02,3.24 -205.07,41.24 -327.87,104.47l-0.07 -0.16c-17.69,9.12 -37.67,14.39 -58.89,14.63 -72.79,0.86 -132.57,-57.52 -133.44,-130.32 -1.92,-137.77 -17.91,-248.41 -62.28,-338.69 -42.54,-86.59 -115.73,-161.12 -234.07,-232.12 -129.57,-77.77 -271.01,-106.02 -394.72,-88.83 -113.46,15.8 -210.73,70.54 -264.64,160.33 -117.14,195.13 -110.29,477.38 -41.53,803.08 66.71,315.94 193.5,673.24 325.25,1033.9 380.33,-53.25 755.27,-109.43 1065.61,-199.15 319.5,-92.31 571.63,-218.93 688.69,-413.95 53.98,-89.96 56.56,-201.66 17.16,-309.33 -42.98,-117.28 -134.3,-228.78 -263.52,-306.35 -118.46,-71.12 -218.86,-100.64 -315.69,-97.51z"/>
  </g>
 </g>
</svg>
